<svg xmlns="http://www.w3.org/2000/svg" width="204.482" height="53.625" viewBox="0 0 204.482 53.625">
  <g id="Group_20" data-name="Group 20" transform="translate(-460.035 -540.5)">
    <g id="Group_18" data-name="Group 18" transform="translate(460.035 554.526)">
      <path id="Path_4" data-name="Path 4" d="M460.035,582.019c0-6.545,4.995-11.319,11.729-11.319a10.935,10.935,0,0,1,8.41,3.446l-2.055,1.992a8.2,8.2,0,0,0-6.229-2.624,8.507,8.507,0,1,0,0,17.009,8.229,8.229,0,0,0,6.229-2.656l2.055,1.992a10.981,10.981,0,0,1-8.441,3.478C465.03,593.338,460.035,588.563,460.035,582.019Z" transform="translate(-460.035 -569.625)" fill="#fff"/>
      <path id="Path_5" data-name="Path 5" d="M500.821,590.176a8.711,8.711,0,1,1,8.726,8.568A8.338,8.338,0,0,1,500.821,590.176Zm14.353,0a5.65,5.65,0,1,0-5.628,5.912C512.772,596.089,515.174,593.749,515.174,590.176Z" transform="translate(-480.428 -575.096)" fill="#fff"/>
      <path id="Path_6" data-name="Path 6" d="M568.734,588.911v9.643H565.7V589.26c0-3.288-1.581-4.9-4.331-4.9-3.035,0-5.027,1.929-5.027,5.564v8.632H553.3V589.26c0-3.288-1.581-4.9-4.331-4.9-3.035,0-5.027,1.929-5.027,5.564v8.632h-3.035V581.8h2.909v2.5a6.79,6.79,0,0,1,5.785-2.656,6.2,6.2,0,0,1,5.818,3.1,7.55,7.55,0,0,1,6.45-3.1C565.951,581.64,568.734,583.979,568.734,588.911Z" transform="translate(-500.473 -575.096)" fill="#fff"/>
      <path id="Path_7" data-name="Path 7" d="M621.944,590.176a8.141,8.141,0,0,1-8.474,8.568,7.155,7.155,0,0,1-5.849-2.719v8.663h-3.035V581.8H607.5v2.656a7.136,7.136,0,0,1,5.975-2.814A8.133,8.133,0,0,1,621.944,590.176Zm-3.067,0a5.65,5.65,0,1,0-5.659,5.912A5.539,5.539,0,0,0,618.878,590.176Z" transform="translate(-532.311 -575.096)" fill="#fff"/>
      <path id="Path_8" data-name="Path 8" d="M644.551,568.551h3.035V592.01h-3.035Z" transform="translate(-552.293 -568.551)" fill="#fff"/>
      <path id="Path_9" data-name="Path 9" d="M672.563,591.188H658.968c.38,2.941,2.75,4.9,6.07,4.9a6.256,6.256,0,0,0,4.837-2.023l1.676,1.96a8.411,8.411,0,0,1-6.608,2.719c-5.406,0-9.01-3.573-9.01-8.568a8.206,8.206,0,0,1,8.41-8.536c4.837,0,8.283,3.477,8.283,8.631C672.626,590.524,672.594,590.9,672.563,591.188Zm-13.595-2.181h10.75a5.408,5.408,0,0,0-10.75,0Z" transform="translate(-557.984 -575.096)" fill="#fff"/>
      <path id="Path_10" data-name="Path 10" d="M701.588,594.065a5.725,5.725,0,0,1-3.667,1.17c-3.383,0-5.312-1.865-5.312-5.248v-9.2h-2.846v-2.5h2.846v-3.667h3.035v3.667h4.806v2.5h-4.806v9.074c0,1.8.949,2.814,2.624,2.814a3.826,3.826,0,0,0,2.372-.79Z" transform="translate(-574.899 -571.586)" fill="#fff"/>
      <path id="Path_11" data-name="Path 11" d="M729.979,591.188H716.385c.379,2.941,2.75,4.9,6.07,4.9a6.255,6.255,0,0,0,4.837-2.023l1.676,1.96a8.411,8.411,0,0,1-6.608,2.719c-5.406,0-9.01-3.573-9.01-8.568a8.206,8.206,0,0,1,8.41-8.536c4.837,0,8.283,3.477,8.283,8.631C730.043,590.524,730.011,590.9,729.979,591.188Zm-13.594-2.181h10.749a5.408,5.408,0,0,0-10.749,0Z" transform="translate(-586.693 -575.096)" fill="#fff"/>
    </g>
    <g id="Group_19" data-name="Group 19" transform="translate(613.038 540.5)">
      <path id="Path_12" data-name="Path 12" d="M806.447,540.5H777.115a11.086,11.086,0,0,0-11.073,11.073v31.478a11.086,11.086,0,0,0,11.073,11.073h21.1v-4.29h-21.1a6.791,6.791,0,0,1-6.784-6.783V551.573a6.791,6.791,0,0,1,6.784-6.783h.367v28.045a10.367,10.367,0,1,0,20.734,0V555.6h-4.289v17.237a6.078,6.078,0,0,1-12.155,0V544.79h24.676a6.791,6.791,0,0,1,6.783,6.783v31.478a6.791,6.791,0,0,1-6.783,6.783h-.367V563.447h-4.29v30.677h4.656a11.086,11.086,0,0,0,11.073-11.073V551.573A11.086,11.086,0,0,0,806.447,540.5Z" transform="translate(-766.041 -540.5)" fill="#fff"/>
      <rect id="Rectangle_16" data-name="Rectangle 16" width="4.29" height="4.236" transform="translate(35.75 15.015)" fill="#fff"/>
    </g>
  </g>
</svg>
